# xmcd
#
# Track frame offsets:
#	150
#	13842
#	27156
#	42133
#	54724
#	71374
#	84202
#	100606
#	125662
#	146130
#	161560
#	175550
#	186601
#	203974
#	226478
#	243180
#
# Disc length: 3461 seconds
#
# Revision: 0
# Processed by: cddbd v1.5.2PL0 Copyright (c) Steve Scherf et al.
# Submitted via: audiograbber 1.83.01
#
DISCID=d50d8310
DTITLE=Various Artist - Honky Tonk And Hillbilly Heaven  CD1
DYEAR=2009
DGENRE=Country
TTITLE0=Brooks and Dunn - Little Miss Honkey Tonk
TTITLE1=Jamey Johnson - The Dollar
TTITLE2=Ryan Adams - Goodnight Rose
TTITLE3=Chris LeDoux - Workin Mans Dollar
TTITLE4=Blake Shelton - Ol' Red
TTITLE5=Sugarland - Down To Missippi(And Up To No Good)
TTITLE6=Steve Forde - Beer and Women
TTITLE7=Toby Keith - I Love This Bar
TTITLE8=Shooter Jennings - Electric Rodeo
TTITLE9=Talia Wittmann - Reckless Side Of Me
TTITLE10=Joe Nichols - Tequila Makes Her Clothes Fall Off
TTITLE11=George Jones - High-Tech Redneck
TTITLE12=Adam Harvey - God Made Beer
TTITLE13=Big and Rich - Kick My Ass
TTITLE14=The Wilkinsons - Six Pack
TTITLE15=The Yeehaa Boys - Playin' 8 Ball
EXTD=
EXTT0=
EXTT1=
EXTT2=
EXTT3=
EXTT4=
EXTT5=
EXTT6=
EXTT7=
EXTT8=
EXTT9=
EXTT10=
EXTT11=
EXTT12=
EXTT13=
EXTT14=
EXTT15=
PLAYORDER=
